<?xml version="1.0" encoding="utf-8"?>
<!-- Generator: Adobe Illustrator 14.0.0, SVG Export Plug-In  -->
<!DOCTYPE svg PUBLIC "-//W3C//DTD SVG 1.1//EN" "http://www.w3.org/Graphics/SVG/1.1/DTD/svg11.dtd" [
	<!ENTITY ns_flows "http://ns.adobe.com/Flows/1.0/">
]>
<svg version="1.1"
	 xmlns="http://www.w3.org/2000/svg" xmlns:xlink="http://www.w3.org/1999/xlink" xmlns:a="http://ns.adobe.com/AdobeSVGViewerExtensions/3.0/"
	 x="0px" y="0px" width="709px" height="250px" viewBox="-8.6098633 -8.949707 709 250"
	 enable-background="new -8.6098633 -8.949707 709 250" xml:space="preserve">
<defs>
</defs>
<path fill="#58585A" d="M181.550293,108.4155273c-1.9277344,8.1264648,9.8242188,31.0605469,9.8242188,31.0605469
	s-31.0400391,2.9121094-39.3164063,8.3476563c-8.2880859,5.4511719-21.2001953,31.4580078-21.2001953,31.4580078
	s-20.0605469-17.5097656-29.1113281-18.4287109c-8.9316406-0.890625-36.1044922,11.0976563-36.1044922,11.0976563
	s2.8466797-25.578125-1.21875-31.7441406c-3.9804688-6.046875-26.8017578-12.7880859-26.8017578-12.7880859
	s20.4208984-18.4443359,22.9716797-25.7919922c2.5244141-7.2670898-4.3076172-26.1088867-4.3076172-26.1088867
	s25.1425781-3.5019531,32.4042969-8.2661133c7.2451172-4.7587891,18.921875-25.3676758,18.921875-25.3676758
	s17.3486328,11.9238281,25.6738281,12.0688477c8.4277344,0.1342773,34.0097656-11.6069336,34.0097656-11.6069336
	s-0.2734375,21.8549805,4.7216797,27.2260742c5.0966797,5.4838867,32.4462891,11.1826172,32.4462891,11.1826172
	S183.4516602,100.4072266,181.550293,108.4155273 M262.7827148,112.980957
	c0.4941406-3.0239258-29.4013672-21.9570313-56.21875-32.9892578
	c16.3867188-22.4189453,29.5195313-49.8168945,27.5371094-51.5947266
	c-1.9599609-1.7617188-37.3398438,3.8295898-65.6074219,12.1655273C163.2836914,20.4208984,152.0307617-0.0644531,149.2055664,0
	c-2.8193359,0.0751953-25.6416016,20.7539063-41.7011719,40.1704102
	c-20.3349609-7.9707031-46.1591797-12.9121094-48.5439453-11.34375c-2.3740234,1.5629883-5.5966797,25.6362305-3.9316406,45.9067383
	C29.8061523,82.5053711,1.027832,95.7773438,0.0395508,98.2158203
	c-0.9824219,2.4599609,16.5703125,18.8686523,35.7236328,29.8793945
	c-17.7734375,22.0703125-35.046875,51.2773438-33.8486328,53.5664063c1.203125,2.3085938,33.8271484-0.4414063,62.3154297-7.6220703
	c2.7441406,27.0224609,12.6914063,59.2861328,15.9785156,59.8173828
	c3.2978516,0.5273438,31.6142578-26.7207031,50.8320313-52.1953125
	c26.2861328,14.4746094,63.2714844,26.8603516,66.4404297,24.7597656
	c3.1640625-2.0996094,2.2021484-38.3330078-4.3076172-65.8759766
	C225.4106445,131.940918,262.277832,116.0209961,262.7827148,112.980957"/>
<path fill="#E20062" d="M157.3481445,93.9296875c7.5683594-10.0117188,14.0029297-22.5317383,13.2021484-23.3964844
	c-0.7890625-0.8486328-16.4355469,1.3105469-29.21875,4.925293c-2.1162109-9.7861328-7.1054688-20.1523438-8.4375-20.1791992
	c-1.3212891-0.0214844-12.1816406,9.9150391-19.7607422,19.25c-9.796875-4.2001953-22.5371094-7.0737305-23.6865234-6.3164063
	c-1.1494141,0.7519531-2.25,12.7026367-1.0205078,22.5209961c-12.1064453,3.5825195-25.9208984,9.8129883-26.3183594,10.9731445
	c-0.4082031,1.1547852,8.7714844,8.8085938,18.2617188,13.7553711
	c-7.8417969,9.9365234-15.1142578,22.8164063-14.4746094,23.7773438c0.6386719,0.9667969,15.7158203-0.6230469,28.5419922-3.9960938
	c1.6162109,11.15625,6.3642578,23.875,7.7822266,24.0146484s13.3798828-11.1025391,21.5869141-21.6396484
	c10.9941406,5.4941406,25.953125,9.8232422,27.2636719,8.953125c1.3105469-0.859375,1.5898438-15.1894531-0.5966797-26.4628906
	c13.5244141-3.7548828,28.9667969-10.5170898,29.2675781-11.7954102
	C180.0463867,107.0458984,168.3862305,98.887207,157.3481445,93.9296875"/>
<path fill="#E20062" d="M618.0834961,221.1381836h72.6279297V200.331543h-42.4638672l42.0019531-61.9882813v-22.4780273h-47.7597656
	l-6.8212891,20.8178711h23.0527344l-40.6376953,60.9296875V221.1381836z M570.925293,221.1381836l-31.3994141-105.2729492
	h30.1748047l16.9833984,75.409668h0.3115234l17.2841797-75.409668h28.9609375l-31.3994141,105.2729492H570.925293z"/>
<path fill="#58585A" d="M223.418457,206.8510742c3.0449219,2.3535156,8.2285156,4.9794922,13.1855469,4.9794922
	c7.1064453,0,10.4902344-4.5380859,10.4902344-10.5380859c0-6.1503906-2.8144531-9.3730469-10.0390625-12.8847656
	c-9.9150391-4.6894531-14.5390625-11.7089844-14.5390625-20.0615234c0-11.4130859,7.2128906-20.7861328,18.8251953-20.7861328
	c5.5273438,0,10.3720703,1.8964844,13.3046875,4.3935547l-2.3740234,9.2167969
	c-2.1376953-1.6113281-6.0800781-4.0986328-11.15625-4.0986328c-5.8652344,0-9.0175781,4.3945313-9.0175781,9.6630859
	c0,5.8603516,3.1523438,8.4912109,10.2587891,12.1552734c9.3564453,4.5380859,14.3193359,10.6875,14.3193359,21.2265625
	c0,12.5947266-7.5517578,21.3818359-20.2978516,21.3818359c-5.9726563,0-11.4941406-2.0517578-15.3291016-4.9736328
	L223.418457,206.8510742z"/>
<path fill="#58585A" d="M305.7143555,217.3950195c-2.5888672,1.6113281-8.3417969,4.1035156-15.6679688,4.1035156
	c-16.4619141,0-27.1669922-14.4970703-27.1669922-36.1689453c0-21.8173828,11.4941406-37.7695313,29.3046875-37.7695313
	c5.8710938,0,11.0537109,1.8964844,13.7558594,3.8027344l-2.2509766,9.8076172
	c-2.3681641-1.6113281-6.0849609-3.3681641-11.5048828-3.3681641c-12.5087891,0-19.2763672,12.1552734-19.2763672,26.796875
	c0,16.4033203,8.1210938,26.5009766,18.9433594,26.5009766c5.6396484,0,9.3564453-1.7568359,12.1767578-3.3681641
	L305.7143555,217.3950195z"/>
<path fill="#58585A" d="M314.737793,107.706543h9.9199219v52.5878906h0.2255859
	c1.5742188-3.6572266,4.0605469-7.0302734,7.1005859-9.0761719c2.9326172-2.3476563,6.4296875-3.6640625,10.1513672-3.6640625
	c7.3320313,0,19.0488281,5.8603516,19.0488281,30.3144531v42.1689453h-9.9257813v-40.8583984
	c0-11.4130859-3.2626953-20.9306641-12.6191406-20.9306641c-6.4296875,0-11.3867188,5.8544922-13.3046875,12.8798828
	c-0.5634766,1.7617188-0.6767578,3.6582031-0.6767578,6.1503906v42.7587891h-9.9199219V107.706543z"/>
<path fill="#58585A" d="M420.3735352,200.5561523c0,7.4716797,0.1181641,13.9121094,0.4511719,19.4765625h-8.7871094
	l-0.5693359-11.5644531h-0.2255859c-2.4814453,5.7148438-8.3359375,13.1757813-18.0361328,13.1757813
	c-8.5722656,0-18.8310547-6.2949219-18.8310547-31.0449219v-41.4335938h9.9257813v39.0966797
	c0,13.4707031,3.265625,22.6982422,12.1708984,22.6982422c6.6494141,0,11.2792969-6.0048828,13.0839844-11.8652344
	c0.5585938-1.7617188,0.9023438-4.1035156,0.9023438-6.5898438v-43.3398438h9.9150391V200.5561523z"/>
<rect x="434.2416992" y="107.706543" fill="#58585A" width="9.9257813" height="112.3261719"/>
<path fill="#58585A" d="M492.8618164,177.7182617c0.1181641-8.2011719-2.5888672-20.9355469-13.6318359-20.9355469
	c-10.1513672,0-14.4375,12.0039063-15.2324219,20.9355469H492.8618164z M463.8901367,186.940918
	c0.2255859,17.2841797,8.6796875,24.4550781,18.6054688,24.4550781c7.1005859,0,11.4941406-1.6113281,15.1035156-3.6640625
	l1.8046875,9.2226563c-3.4912109,2.0517578-9.5820313,4.5439453-18.2617188,4.5439453
	c-16.6826172,0-26.8339844-14.4912109-26.8339844-35.7285156c0-21.3769531,9.8076172-38.2099609,25.7060547-38.2099609
	c17.8105469,0,22.4296875,20.3457031,22.4296875,33.3759766c0,2.6425781-0.1074219,4.5380859-0.3330078,6.0048828H463.8901367z"/>
<path fill="#58585A" d="M512.144043,171.2729492c0-8.3457031-0.1074219-15.5117188-0.4511719-22.1074219h8.6796875
	l0.4511719,13.9169922h0.3330078c2.4814453-9.5224609,8.5722656-15.5283203,15.2324219-15.5283203
	c1.0097656,0,1.8046875,0.1503906,2.7070313,0.2958984l4.1787109,13.5458984
	c-2.0195313-0.7949219-3.5126953-1.6816406-7.5625-1.6816406c-6.9931641,0-11.9560547,6.875-13.3095703,16.3984375
	c-0.2255859,1.9013672-0.34375,3.953125-0.34375,6v37.9199219h-9.9150391V171.2729492z"/>
<rect x="382.9692383" y="121.3764648" fill="#58585A" width="9.0341797" height="13.8300781"/>
<rect x="402.7456055" y="121.3764648" fill="#58585A" width="9.0556641" height="13.8300781"/>
</svg>
